<?xml version="1.0" standalone="no"?>
<!DOCTYPE svg PUBLIC "-//W3C//DTD SVG 20010904//EN"
 "http://www.w3.org/TR/2001/REC-SVG-20010904/DTD/svg10.dtd">
<svg version="1.0" xmlns="http://www.w3.org/2000/svg"
 width="480.000000pt" height="384.000000pt" viewBox="0 0 480.000000 384.000000"
 preserveAspectRatio="xMidYMid meet">

<g transform="translate(0.000000,384.000000) scale(0.100000,-0.100000)"
fill="#000000" stroke="none">
<path d="M32 2053 l3 -1758 2365 0 2365 0 0 1755 0 1755 -2368 3 -2367 2 2
-1757z m2613 1203 c447 -98 799 -413 938 -841 57 -173 73 -415 41 -600 -88
-510 -501 -921 -1014 -1009 -495 -85 -994 136 -1265 560 -130 202 -189 412
-189 669 -1 342 117 629 357 873 182 183 426 313 662 351 39 6 81 13 95 15 51
9 308 -4 375 -18z"/>
<path d="M2275 3253 c-147 -18 -310 -65 -427 -124 -222 -112 -438 -329 -551
-554 -39 -78 -85 -216 -104 -312 -21 -108 -23 -327 -4 -433 59 -332 253 -630
530 -815 542 -361 1267 -237 1659 284 275 365 320 862 115 1280 -86 175 -236
349 -396 459 -96 66 -258 144 -357 172 -147 41 -339 59 -465 43z m54 -76 c5
-12 17 -62 27 -110 10 -48 21 -87 25 -87 4 0 12 33 19 73 6 39 16 89 21 110
10 36 11 37 58 37 l48 0 6 -172 c4 -94 6 -173 4 -174 -1 -1 -16 -4 -32 -6
l-30 -3 -3 123 c-2 76 -7 122 -13 122 -6 0 -10 12 -9 28 3 42 1 52 -11 52 -7
0 -9 -13 -5 -37 4 -21 9 -51 12 -68 2 -16 -3 -73 -13 -125 -18 -94 -19 -95
-48 -95 -29 0 -30 1 -53 105 -36 157 -41 159 -41 19 l-1 -127 -37 -5 c-21 -3
-50 -9 -65 -12 -23 -6 -29 -3 -39 19 -13 28 -24 31 -64 16 -23 -9 -26 -15 -23
-47 2 -32 0 -37 -25 -46 -16 -5 -30 -7 -32 -5 -5 5 -45 302 -45 333 0 17 10
27 38 38 24 10 41 12 49 6 6 -6 48 -73 93 -149 45 -77 84 -140 86 -140 3 0 4
69 4 153 -1 83 -1 162 0 175 0 19 5 22 45 22 38 0 47 -4 54 -23z m470 -45 c44
-33 46 -65 12 -181 -35 -115 -42 -128 -87 -147 -41 -17 -96 -2 -124 34 -26 33
-24 79 10 195 28 98 63 132 124 124 21 -3 51 -14 65 -25z m213 -95 l28 -22
-24 -90 c-12 -49 -26 -101 -30 -114 -14 -41 8 -16 62 73 29 47 55 86 58 86 13
0 44 -22 44 -30 0 -6 -34 -63 -76 -128 -42 -64 -83 -127 -90 -139 -17 -27 -31
-28 -62 -5 l-23 18 25 114 c15 62 24 115 22 117 -2 2 -29 -37 -61 -87 -31 -49
-60 -90 -64 -90 -18 0 -44 28 -38 42 13 35 180 278 191 278 6 0 23 -10 38 -23z
m-1118 -135 c47 -82 86 -154 86 -160 0 -11 -47 -29 -54 -21 -2 4 -37 63 -127
221 -22 37 -39 71 -39 76 0 7 18 19 47 31 0 1 40 -66 87 -147z m-172 7 c17
-13 27 -27 24 -36 -3 -8 -2 -12 3 -9 11 7 100 -90 112 -122 5 -13 9 -32 9 -43
0 -25 -97 -129 -119 -128 -16 1 -215 223 -226 251 -4 10 15 32 51 61 64 53 98
59 146 26z m1565 -91 c47 -51 63 -80 63 -113 0 -37 -15 -55 -108 -133 -63 -54
-78 -62 -114 -62 -37 0 -46 5 -89 53 -27 28 -49 57 -49 62 0 6 39 44 87 85 48
41 103 90 123 107 19 18 40 33 46 33 5 0 24 -15 41 -32z m-714 -24 c40 -9 105
-31 145 -50 500 -229 618 -877 230 -1262 -198 -196 -479 -274 -743 -207 -81
21 -227 94 -297 149 -125 100 -228 260 -268 420 -24 96 -27 253 -5 355 60 286
281 516 570 591 91 24 269 26 368 4z m-1153 -421 c0 -9 15 -13 48 -13 l47 -1
-27 -20 c-32 -24 -34 -38 -13 -80 l16 -30 -39 20 -39 20 -27 -27 -28 -27 4 39
c4 36 1 41 -31 60 l-36 21 40 5 c36 5 40 8 49 44 8 36 10 38 22 21 8 -10 14
-25 14 -32z m1950 -23 c4 -8 24 -17 44 -20 l38 -5 -32 -19 c-30 -17 -32 -21
-26 -58 7 -42 2 -43 -37 -10 -16 14 -21 14 -48 -2 -38 -22 -42 -18 -27 22 12
31 11 34 -17 57 l-30 24 42 1 c39 0 42 2 54 37 12 37 12 37 22 13 5 -14 12
-32 17 -40z m-2002 -324 c19 -32 23 -35 59 -29 l38 6 -28 -31 c-28 -29 -28
-31 -13 -60 22 -43 21 -44 -19 -25 -35 17 -35 17 -66 -13 l-31 -29 7 42 c6 40
5 44 -24 60 -40 23 -39 33 3 33 36 0 46 12 46 56 0 32 4 30 28 -10z m2062 2
c0 -34 11 -44 54 -52 l39 -7 -32 -20 c-31 -19 -32 -22 -26 -62 l7 -42 -24 23
c-28 26 -47 28 -74 7 -30 -23 -35 -18 -20 19 13 32 13 35 -16 63 l-30 30 38
-1 c35 -1 41 3 54 31 18 38 30 42 30 11z m-1920 -339 c12 -28 17 -30 52 -27
44 4 47 0 14 -31 -23 -22 -23 -25 -10 -57 16 -38 14 -40 -26 -19 -27 14 -30
13 -60 -11 l-31 -26 7 40 c6 38 4 41 -27 58 l-34 18 31 6 c45 10 54 18 54 51
0 38 14 37 30 -2z m1856 -59 l39 -5 -33 -23 c-21 -15 -31 -30 -28 -40 2 -10 8
-28 11 -42 l7 -25 -23 21 c-39 35 -48 36 -79 14 -32 -23 -36 -17 -20 26 9 24
7 31 -17 56 l-27 28 40 0 c37 0 41 3 54 38 l14 37 11 -40 c11 -36 15 -40 51
-45z m-1435 -301 c20 -10 19 -12 -15 -75 l-36 -64 40 -20 c21 -11 41 -20 44
-20 3 0 19 27 37 60 17 33 35 60 38 60 4 0 15 -6 26 -13 17 -13 16 -18 -25
-93 -24 -43 -57 -104 -73 -134 -37 -69 -33 -65 -61 -52 l-25 11 30 55 30 55
-41 21 c-23 12 -43 20 -45 18 -1 -2 -14 -24 -29 -50 -31 -53 -30 -52 -57 -38
-18 10 -18 12 7 63 42 83 125 227 130 227 3 0 14 -5 25 -11z m973 -19 c14 -5
30 -18 36 -29 8 -17 7 -22 -11 -31 -17 -9 -25 -8 -40 6 -37 34 -77 -18 -46
-60 13 -17 19 -18 60 -8 54 14 86 5 110 -32 17 -25 22 -80 11 -111 -8 -20 -56
-45 -87 -45 -25 0 -77 34 -77 50 0 5 9 14 21 20 17 9 25 8 40 -6 25 -23 53 -9
57 28 5 39 -21 54 -71 41 -52 -14 -79 -4 -106 41 -32 51 -25 94 18 123 38 26
48 27 85 13z m-181 -100 c18 -14 31 -43 47 -102 26 -95 27 -143 5 -168 -16
-18 -132 -56 -142 -47 -8 9 -84 299 -79 304 7 7 98 31 122 32 12 1 33 -8 47
-19z m-505 4 l23 -7 -7 -161 c-3 -88 -8 -163 -10 -165 -2 -2 -15 -1 -29 3 -21
5 -25 12 -25 40 0 26 -5 35 -22 40 -39 10 -48 7 -60 -19 -11 -25 -51 -35 -62
-16 -3 5 24 72 61 150 70 148 72 150 131 135z m206 -111 c16 -49 33 -92 38
-98 6 -6 8 29 7 85 l-2 95 27 3 26 3 0 -150 c0 -83 1 -154 3 -158 1 -5 -14 -9
-33 -11 l-35 -3 -40 103 -40 103 -3 -102 c-3 -101 -3 -103 -26 -103 -23 0 -24
1 -28 153 -3 83 -3 155 -1 160 2 4 21 7 41 7 l37 0 29 -87z"/>
<path d="M2240 3135 c0 -8 5 -15 10 -15 6 0 10 7 10 15 0 8 -4 15 -10 15 -5 0
-10 -7 -10 -15z"/>
<path d="M2001 3116 c-9 -11 -9 -16 0 -22 8 -4 9 -3 5 4 -5 8 0 12 13 12 12 0
21 5 21 10 0 15 -26 12 -39 -4z"/>
<path d="M2033 3103 c-18 -7 -16 -20 3 -27 8 -3 12 -2 9 4 -3 6 -1 10 4 10 6
0 11 5 11 10 0 11 -7 12 -27 3z"/>
<path d="M2417 3074 c-11 -11 -8 -52 3 -59 6 -3 13 0 15 8 7 17 -8 60 -18 51z"/>
<path d="M2020 3059 c0 -35 24 -149 32 -149 5 0 18 5 29 10 18 10 17 13 -16
80 -34 67 -45 82 -45 59z"/>
<path d="M1994 2975 c0 -25 3 -45 7 -45 9 0 18 61 12 78 -10 26 -20 10 -19
-33z"/>
<path d="M2330 2989 c0 -16 20 -52 40 -71 15 -14 20 -15 30 -3 8 10 8 15 -1
21 -8 4 -9 3 -5 -4 4 -7 2 -12 -5 -12 -6 0 -9 8 -7 18 3 12 -2 24 -14 31 -10
6 -16 16 -13 21 3 6 -1 10 -9 10 -9 0 -16 -5 -16 -11z"/>
<path d="M2255 2970 c2 -23 25 -53 25 -32 0 7 -6 12 -12 12 -10 0 -9 3 1 9 7
5 10 14 7 20 -11 18 -23 13 -21 -9z"/>
<path d="M2505 2970 c3 -5 8 -10 11 -10 2 0 4 5 4 10 0 6 -5 10 -11 10 -5 0
-7 -4 -4 -10z"/>
<path d="M2010 2779 c0 -5 5 -7 10 -4 6 3 10 8 10 11 0 2 -4 4 -10 4 -5 0 -10
-5 -10 -11z"/>
<path d="M2640 3074 c-10 -18 -11 -27 -2 -36 11 -11 12 -11 27 37 8 25 -11 25
-25 -1z"/>
<path d="M2690 3078 c-20 -51 -50 -159 -50 -182 0 -32 32 -51 60 -36 27 14 84
194 69 221 -15 28 -67 26 -79 -3z"/>
<path d="M2792 3048 c-5 -7 -12 -28 -15 -45 -7 -43 17 -45 32 -3 8 25 7 30 -6
30 -13 0 -13 3 -3 15 7 8 10 15 7 15 -2 0 -9 -6 -15 -12z"/>
<path d="M2696 2843 c-5 -6 18 -33 28 -33 3 0 6 6 6 14 0 15 -24 28 -34 19z"/>
<path d="M2959 3024 c-10 -13 -10 -17 2 -25 10 -6 10 -9 2 -9 -7 0 -13 -5 -13
-11 0 -6 6 -9 13 -6 6 2 12 18 12 35 1 37 1 37 -16 16z"/>
<path d="M2995 2999 c-4 -6 -5 -13 -2 -16 7 -7 27 6 27 18 0 12 -17 12 -25 -2z"/>
<path d="M2965 2960 c-7 -11 12 -40 25 -40 4 0 8 11 8 25 0 25 -21 34 -33 15z"/>
<path d="M3100 2943 c0 -4 5 -15 10 -23 8 -13 10 -13 10 2 0 9 -4 20 -10 23
-5 3 -10 3 -10 -2z"/>
<path d="M2845 2847 c-10 -8 -15 -19 -11 -25 4 -7 2 -12 -5 -12 -10 0 -10 -3
-1 -12 16 -16 34 1 37 36 4 30 4 30 -20 13z"/>
<path d="M2806 2780 c-13 -4 -16 -9 -8 -14 7 -4 19 -3 28 2 21 12 5 22 -20 12z"/>
<path d="M2970 2716 c0 -7 -7 -19 -15 -26 -8 -7 -12 -17 -8 -23 6 -10 23 8 44
46 7 13 6 17 -6 17 -8 0 -15 -6 -15 -14z"/>
<path d="M1785 3020 c-3 -5 -1 -10 4 -10 6 0 11 5 11 10 0 6 -2 10 -4 10 -3 0
-8 -4 -11 -10z"/>
<path d="M1927 2750 c3 -11 9 -17 14 -14 14 8 10 34 -5 34 -9 0 -12 -7 -9 -20z"/>
<path d="M1621 2884 c0 -11 3 -14 6 -6 3 7 2 16 -1 19 -3 4 -6 -2 -5 -13z"/>
<path d="M1593 2883 c-7 -2 -13 -11 -13 -19 0 -8 -4 -14 -9 -14 -5 0 -13 -10
-17 -22 -5 -16 -1 -27 16 -40 12 -10 18 -18 14 -18 -5 0 -1 -5 9 -11 10 -6 22
-8 25 -4 4 4 1 10 -5 12 -7 3 -13 10 -13 18 0 7 -7 18 -15 25 -13 11 -13 14 2
25 10 8 15 17 11 21 -4 4 -3 13 3 21 12 14 11 14 -8 6z"/>
<path d="M1618 2847 l-28 -22 82 -94 82 -93 28 31 c15 17 28 35 28 39 0 18
-132 162 -148 162 -9 0 -29 -10 -44 -23z"/>
<path d="M1750 2820 c0 -19 11 -26 23 -14 8 8 -3 34 -14 34 -5 0 -9 -9 -9 -20z"/>
<path d="M1810 2751 c0 -6 4 -12 8 -15 5 -3 9 1 9 9 0 8 -4 15 -9 15 -4 0 -8
-4 -8 -9z"/>
<path d="M1685 2670 c6 -31 22 -47 20 -20 -1 11 -7 26 -13 32 -9 9 -10 6 -7
-12z"/>
<path d="M3201 2798 c-31 -29 -40 -48 -21 -48 5 0 13 6 17 13 15 23 49 37 62
24 13 -13 54 -21 47 -8 -3 5 -21 18 -40 29 l-33 20 -32 -30z"/>
<path d="M3154 2704 c-49 -42 -90 -78 -92 -79 -8 -6 50 -55 65 -55 29 0 163
121 163 147 0 12 5 23 12 25 9 3 9 6 0 12 -7 4 -12 2 -12 -5 0 -7 -10 -3 -24
10 l-23 22 -89 -77z"/>
<path d="M3060 2680 c-13 -8 -13 -11 -1 -22 10 -10 12 -10 7 0 -5 8 0 12 13
12 11 0 23 5 26 10 8 13 -25 13 -45 0z"/>
<path d="M3233 2624 c-17 -17 -16 -24 1 -24 19 0 27 13 18 27 -5 7 -11 7 -19
-3z"/>
<path d="M3161 2561 c-10 -6 -9 -10 3 -14 8 -3 18 -2 21 3 8 13 -9 20 -24 11z"/>
<path d="M2210 2769 c-456 -118 -699 -622 -504 -1047 158 -346 533 -521 898
-420 125 34 220 92 326 198 108 107 162 197 202 336 29 101 31 285 4 383 -76
281 -292 491 -571 556 -94 21 -261 19 -355 -6z m59 -283 c9 -11 4 -20 -28 -45
-21 -17 -42 -31 -45 -31 -3 0 -6 16 -6 35 0 28 5 38 23 45 32 13 43 12 56 -4z
m48 8 c-3 -3 -12 -4 -19 -1 -8 3 -5 6 6 6 11 1 17 -2 13 -5z m129 -10 l38 -16
-37 -34 c-20 -19 -40 -34 -45 -34 -4 0 -23 16 -42 35 l-33 35 34 14 c43 19 39
19 85 0z m59 6 c3 -5 2 -10 -4 -10 -5 0 -13 5 -16 10 -3 6 -2 10 4 10 5 0 13
-4 16 -10z m93 -6 c16 -5 22 -14 22 -33 0 -48 -13 -52 -54 -17 -53 44 -37 68
32 50z m-428 -59 c0 -18 -5 -25 -20 -25 -17 0 -18 3 -8 25 6 14 15 25 20 25 4
0 8 -11 8 -25z m488 -33 c-26 -5 -27 -2 -21 31 l6 28 17 -28 c16 -27 16 -28
-2 -31z m-378 28 c0 -15 -7 -20 -27 -20 l-28 0 25 20 c31 24 30 24 30 0z m70
-5 l23 -25 -36 0 c-33 0 -37 3 -37 25 0 14 6 25 13 25 8 0 24 -11 37 -25z
m150 16 c0 -5 3 -16 6 -25 5 -13 -1 -16 -32 -16 l-37 0 23 25 c24 26 40 32 40
16z m80 -37 c0 -2 -11 -4 -24 -4 -17 0 -25 7 -28 25 l-5 24 28 -20 c16 -11 29
-22 29 -25z m-460 32 c0 -2 -8 -10 -17 -17 -16 -13 -17 -12 -4 4 13 16 21 21
21 13z m591 -33 c13 -16 12 -17 -3 -4 -17 13 -22 21 -14 21 2 0 10 -8 17 -17z
m-582 -61 l23 -37 -36 34 c-36 35 -46 54 -23 45 6 -2 23 -21 36 -42z m51 34
c0 -2 12 -35 26 -72 29 -78 22 -76 -35 14 -40 62 -40 62 -16 62 14 0 25 -2 25
-4z m117 -66 c11 -38 19 -70 17 -70 -1 0 -25 32 -53 70 l-51 70 33 0 c32 0 33
-2 54 -70z m89 54 c-3 -8 -14 -44 -23 -79 l-17 -64 -17 54 c-34 112 -35 105
17 105 38 0 45 -3 40 -16z m114 9 c0 -22 -44 -143 -50 -136 -7 9 -30 106 -30
129 0 10 12 14 40 14 22 0 40 -3 40 -7z m90 1 c0 -3 -25 -37 -55 -76 -30 -38
-55 -68 -55 -66 0 4 31 99 45 136 4 12 65 18 65 6z m80 -2 c0 -4 -23 -39 -51
-77 -28 -39 -48 -61 -44 -50 36 100 49 124 69 128 11 2 22 5 24 6 1 0 2 -2 2
-7z m50 -5 c0 -2 -17 -19 -37 -38 -34 -31 -31 -21 6 24 12 15 31 23 31 14z
m-290 -180 c0 -16 -8 -54 -17 -85 l-17 -57 -19 60 c-18 58 -18 62 -1 135 10
41 20 79 23 85 6 11 30 -96 31 -138z m-138 41 c31 -46 60 -99 63 -118 l7 -35
-32 30 c-17 17 -38 42 -46 56 -21 42 -64 160 -56 155 5 -3 33 -42 64 -88z
m256 10 c-19 -47 -46 -89 -73 -117 l-44 -45 13 43 c10 35 117 191 130 191 2 0
-9 -33 -26 -72z m-398 -8 c0 -31 -180 -104 -203 -81 -11 11 45 42 128 72 57
21 75 23 75 9z m48 -18 c2 -7 -3 -12 -12 -12 -9 0 -16 7 -16 16 0 17 22 14 28
-4z m432 -16 c-13 -13 -35 7 -25 24 5 8 11 8 21 -1 10 -8 12 -15 4 -23z m114
8 c35 -15 77 -37 93 -50 l28 -23 -26 -1 c-52 0 -171 56 -183 88 -8 19 17 15
88 -14z m-584 -21 c0 -5 -18 -18 -40 -31 -45 -26 -54 -14 -12 17 27 21 52 27
52 14z m40 -63 l-20 -55 6 50 c3 28 11 56 17 64 19 23 18 -3 -3 -59z m414 -15
l6 -60 -20 65 c-24 77 -25 89 -6 70 8 -8 16 -42 20 -75z m77 54 c16 -11 29
-25 29 -30 0 -11 -55 19 -72 39 -17 20 10 15 43 -9z m-532 -66 c-4 -32 -8 -69
-9 -83 -1 -21 -5 -17 -26 25 -13 28 -24 57 -24 65 0 13 44 49 61 50 3 0 2 -26
-2 -57z m-99 38 c0 -12 -79 -31 -85 -20 -3 4 9 13 27 18 44 12 58 13 58 2z
m611 -8 c16 -10 29 -23 29 -29 0 -12 -49 -123 -51 -114 -5 31 -14 160 -11 160
2 0 17 -8 33 -17z m-737 1 c24 -9 19 -24 -9 -24 -18 0 -23 4 -19 15 7 17 7 17
28 9z m875 -16 c38 -14 17 -20 -28 -8 -23 6 -41 15 -41 21 0 10 16 7 69 -13z
m89 -15 c2 -8 -6 -13 -22 -13 -17 0 -26 5 -26 16 0 19 41 16 48 -3z m-801 -50
c12 -32 21 -59 19 -60 -2 -2 -31 19 -65 46 l-61 49 27 10 c50 18 57 14 80 -45z
m689 31 c23 -6 20 -10 -43 -59 -38 -29 -69 -52 -71 -50 -2 2 11 31 28 65 23
45 35 60 47 56 8 -3 26 -9 39 -12z m-783 -32 c26 -20 47 -37 47 -39 0 -2 -29
12 -65 29 -36 18 -65 35 -65 38 0 17 40 3 83 -28z m823 -18 c-38 -19 -70 -33
-72 -31 -10 10 85 66 111 66 26 0 21 -5 -39 -35z m-548 -3 c29 -15 52 -51 52
-79 0 -23 -1 -23 -41 13 -35 32 -46 36 -75 32 -36 -6 -39 -2 -24 37 8 22 13
24 38 17 16 -5 39 -14 50 -20z m331 -11 l10 -30 -45 0 c-37 0 -51 -5 -76 -30
-36 -37 -44 -33 -28 14 8 25 22 40 53 55 57 28 73 27 86 -9z m-443 -65 c20 27
77 25 107 -3 27 -26 47 -83 47 -133 -1 -80 -72 -169 -134 -169 -65 0 -103 80
-54 114 19 13 25 13 56 0 35 -14 35 -14 17 6 -22 24 -62 26 -93 4 -29 -20 -30
-81 -2 -117 l20 -25 -28 -18 c-17 -12 -52 -20 -94 -22 -61 -4 -69 -2 -93 22
-21 22 -24 29 -15 46 15 29 54 42 86 30 35 -14 44 -12 38 5 -4 8 1 26 10 40
24 37 19 44 -8 10 -20 -25 -32 -30 -67 -31 -33 0 -46 -6 -63 -26 -20 -25 -23
-26 -53 -13 -25 11 -33 20 -33 39 0 34 35 56 90 56 25 0 50 4 56 8 18 11 64
91 56 95 -4 2 -25 8 -47 11 -60 11 -85 31 -85 67 l0 31 74 -7 c48 -4 76 -3 80
4 4 7 27 1 62 -17 55 -26 56 -27 70 -7z m679 9 c55 6 63 4 67 -12 12 -46 -35
-82 -109 -82 -34 0 -34 -12 -2 -63 27 -43 32 -47 68 -47 52 0 87 -14 101 -40
14 -27 -2 -58 -35 -66 -20 -5 -30 0 -46 20 -16 20 -29 26 -60 26 -31 0 -46 6
-65 28 l-25 27 16 -34 c14 -27 14 -35 4 -42 -8 -4 12 -5 42 -2 51 5 58 3 73
-18 22 -32 20 -46 -9 -65 -47 -30 -175 -14 -200 25 -3 6 4 25 15 43 24 40 25
66 4 96 -20 28 -73 30 -105 2 -28 -22 -14 -27 15 -5 26 19 45 19 68 -2 23 -21
23 -55 -1 -84 -14 -18 -29 -24 -59 -24 -122 0 -178 209 -83 304 28 28 85 28
105 0 l14 -21 54 25 c40 18 58 22 72 14 11 -5 47 -7 81 -3z"/>
<path d="M1805 1101 c-3 -6 -10 -9 -15 -6 -4 3 -10 -1 -13 -9 -3 -8 0 -13 9
-12 18 3 40 24 32 31 -3 4 -9 1 -13 -4z"/>
<path d="M1970 1085 c-7 -9 -8 -15 -2 -15 5 0 12 7 16 15 3 8 4 15 2 15 -2 0
-9 -7 -16 -15z"/>
<path d="M2881 1292 c-23 -4 -23 -4 5 -18 15 -8 31 -11 36 -6 13 13 -13 29
-41 24z"/>
<path d="M2800 1199 c0 -5 4 -8 9 -5 5 4 14 -6 19 -21 9 -23 11 -24 11 -7 1
20 -16 44 -31 44 -4 0 -8 -5 -8 -11z"/>
<path d="M2985 1150 c-3 -5 -1 -18 4 -27 9 -16 10 -14 11 10 0 28 -5 34 -15
17z"/>
<path d="M2603 1196 c-7 -8 -18 -16 -25 -18 -10 -4 -10 -13 0 -46 12 -41 32
-57 32 -27 0 8 -3 15 -7 15 -5 0 -8 14 -9 30 -1 17 1 28 4 26 7 -8 42 13 42
24 0 14 -23 11 -37 -4z"/>
<path d="M2655 1200 c-3 -5 -1 -10 4 -10 6 0 11 5 11 10 0 6 -2 10 -4 10 -3 0
-8 -4 -11 -10z"/>
<path d="M2632 1173 c-26 -5 -26 -10 12 -142 20 -70 24 -76 47 -73 49 6 55 24
35 104 -10 40 -25 83 -33 96 -13 22 -18 23 -61 15z"/>
<path d="M2737 1103 c-12 -11 -8 -23 8 -23 8 0 15 7 15 15 0 16 -12 20 -23 8z"/>
<path d="M2754 1015 c-9 -22 1 -29 15 -11 8 10 9 16 1 21 -5 3 -13 -1 -16 -10z"/>
<path d="M2627 1003 c-4 -3 -7 -16 -6 -27 0 -19 1 -19 10 3 10 24 8 36 -4 24z"/>
<path d="M2190 1199 c0 -5 4 -9 10 -9 5 0 3 -8 -6 -19 -9 -10 -29 -47 -45 -82
-25 -58 -26 -65 -11 -71 35 -14 40 -8 47 66 6 66 9 74 26 71 14 -3 18 2 17 20
-2 22 -38 45 -38 24z"/>
<path d="M2120 1107 c-7 -18 -15 -36 -18 -42 -2 -5 8 3 22 19 27 31 31 42 18
50 -4 3 -14 -10 -22 -27z"/>
<path d="M2035 940 c-3 -5 -1 -10 4 -10 6 0 11 5 11 10 0 6 -2 10 -4 10 -3 0
-8 -4 -11 -10z"/>
<path d="M2335 1160 c3 -6 1 -10 -4 -10 -8 0 -8 -6 0 -18 12 -19 67 -48 75
-40 9 9 -8 38 -22 38 -8 0 -17 6 -20 14 -3 8 -12 17 -20 20 -9 3 -12 1 -9 -4z"/>
<path d="M2370 1155 c0 -8 5 -15 10 -15 6 0 10 7 10 15 0 8 -4 15 -10 15 -5 0
-10 -7 -10 -15z"/>
<path d="M2485 1160 c3 -5 11 -10 16 -10 6 0 7 5 4 10 -3 6 -11 10 -16 10 -6
0 -7 -4 -4 -10z"/>
<path d="M2334 967 c-7 -20 1 -47 16 -47 12 0 13 30 0 50 -8 12 -10 12 -16 -3z"/>
<path d="M2499 948 c-8 -22 -8 -68 0 -68 6 0 11 16 11 35 0 19 -2 35 -5 35 -3
0 -5 -1 -6 -2z"/>
<path d="M2340 895 c-10 -12 -10 -15 4 -15 9 0 16 7 16 15 0 8 -2 15 -4 15 -2
0 -9 -7 -16 -15z"/>
<path d="M595 238 c-14 -46 -15 -42 37 -99 l27 -29 -39 0 c-22 0 -40 -3 -40
-6 0 -11 23 -49 34 -56 19 -13 101 -8 123 7 12 8 23 11 25 6 5 -12 41 -22 54
-13 15 10 74 99 74 111 0 6 4 11 9 11 8 0 41 60 41 74 0 3 -13 6 -30 6 -24 0
-35 -9 -65 -52 l-35 -53 0 53 c0 52 -1 53 -27 50 -27 -3 -28 -6 -33 -71 l-5
-68 -34 35 -35 36 26 0 c34 0 44 16 27 46 -11 21 -19 24 -71 24 -38 0 -60 -4
-63 -12z"/>
<path d="M952 238 c-16 -16 -16 -170 0 -186 12 -12 104 -17 132 -6 21 8 24
134 4 134 -10 0 -9 3 1 9 11 7 10 13 -4 35 -15 22 -24 26 -69 26 -29 0 -57 -5
-64 -12z m87 -125 c2 -2 -5 -3 -17 -3 -14 0 -22 6 -22 16 0 14 3 15 18 3 9 -7
19 -15 21 -16z"/>
<path d="M1622 148 l3 -103 60 -3 c76 -4 104 3 114 31 10 26 -4 58 -56 130
-32 44 -38 47 -79 47 l-45 0 3 -102z m88 -8 l21 -30 -25 0 c-22 0 -26 4 -26
30 0 17 2 30 4 30 3 0 14 -13 26 -30z"/>
<path d="M1810 234 c0 -8 11 -31 25 -51 25 -38 23 -54 -12 -95 -36 -41 19 -66
58 -27 l21 21 14 -21 c16 -22 58 -29 69 -11 3 5 -6 27 -20 47 -14 21 -25 41
-25 46 0 4 11 25 25 47 32 51 31 60 -4 60 -19 0 -36 -8 -46 -22 l-16 -23 -16
23 c-18 26 -73 32 -73 6z"/>
<path d="M2002 148 c3 -102 3 -103 28 -103 21 0 26 5 28 33 2 23 8 32 21 32
24 0 43 23 45 55 1 17 7 25 19 25 21 0 21 4 1 35 -15 22 -23 25 -80 25 l-65 0
3 -102z"/>
<path d="M2672 148 l3 -103 44 -3 c62 -5 86 3 99 33 16 35 16 35 -23 35 l-35
0 21 21 c13 13 18 27 13 41 -3 11 -2 18 3 15 5 -3 15 -2 22 2 11 7 10 14 -4
35 -16 24 -23 26 -81 26 l-65 0 3 -102z"/>
<path d="M2842 148 c3 -102 3 -103 28 -103 20 0 26 6 28 27 3 24 8 27 50 30
l47 3 3 58 c4 79 -5 87 -90 87 l-69 0 3 -102z m91 25 c-7 -2 -19 -2 -25 0 -7
3 -2 5 12 5 14 0 19 -2 13 -5z"/>
<path d="M3022 238 c-19 -19 -15 -31 23 -82 l36 -46 -36 0 c-39 0 -43 -9 -19
-45 14 -22 24 -25 73 -25 90 0 105 33 46 99 l-35 39 35 6 36 7 -18 30 c-16 27
-22 29 -73 29 -31 0 -61 -5 -68 -12z"/>
<path d="M3690 151 c0 -79 3 -100 15 -105 25 -9 45 4 45 30 0 22 4 24 45 24
31 0 47 5 54 18 8 13 10 9 11 -24 0 -43 15 -59 45 -48 10 4 15 21 15 53 l0 46
29 -44 c35 -53 49 -61 79 -50 21 8 22 14 22 104 l0 96 -27 -3 c-25 -3 -29 -8
-33 -46 l-5 -44 -32 46 c-35 49 -64 59 -83 29 -10 -17 -10 -17 -20 0 -9 14
-25 17 -85 17 l-75 0 0 -99z m103 22 c-7 -2 -21 -2 -30 0 -10 3 -4 5 12 5 17
0 24 -2 18 -5z"/>
<path d="M4066 234 c-3 -9 -6 -49 -6 -89 0 -104 1 -105 76 -105 77 0 91 14 86
88 -3 37 -8 52 -20 55 -15 4 -15 5 1 6 21 1 21 5 1 36 -14 22 -24 25 -74 25
-44 0 -59 -4 -64 -16z m85 -115 c10 -6 8 -9 -8 -9 -17 0 -23 6 -23 23 0 16 3
18 9 8 5 -7 15 -17 22 -22z"/>
</g>
</svg>
