<?xml version="1.0" standalone="no"?>
<!DOCTYPE svg PUBLIC "-//W3C//DTD SVG 20010904//EN"
 "http://www.w3.org/TR/2001/REC-SVG-20010904/DTD/svg10.dtd">
<svg version="1.0" xmlns="http://www.w3.org/2000/svg"
 width="873.000000pt" height="482.000000pt" viewBox="0 0 873.000000 482.000000"
 preserveAspectRatio="xMidYMid meet">

<g transform="translate(0.000000,482.000000) scale(0.100000,-0.100000)"
fill="#000000" stroke="none">
<path d="M0 2410 l0 -2410 4365 0 4365 0 0 2410 0 2410 -4365 0 -4365 0 0
-2410z m1638 1060 c233 -65 272 -94 349 -256 51 -108 55 -144 18 -144 -31 0
-212 37 -242 50 -14 6 -38 41 -63 90 -23 46 -46 80 -53 78 -22 -7 -73 -127
-96 -226 -63 -270 -68 -793 -10 -1167 31 -202 43 -261 80 -377 23 -71 45 -130
49 -133 23 -14 152 190 195 310 10 28 24 57 32 66 7 8 13 23 13 31 0 9 3 25 7
35 6 15 9 13 14 -12 l6 -30 9 34 c16 55 45 70 157 77 l97 7 0 -40 c0 -56 -65
-263 -113 -358 -54 -108 -206 -264 -282 -288 -54 -18 -324 -42 -362 -32 -83
20 -181 193 -217 380 -30 153 -44 280 -40 345 5 68 -13 220 -26 220 -4 0 -1
32 6 72 9 48 10 76 4 82 -6 6 -10 23 -10 39 0 24 3 27 14 18 8 -7 16 -46 20
-109 7 -98 22 -221 25 -212 7 20 9 225 2 234 -10 13 -31 244 -31 350 0 87 -14
116 -25 54 l-8 -43 -9 45 c-15 74 -2 282 27 420 59 282 157 425 295 429 14 1
89 -17 168 -39z m5729 -39 c68 -10 126 -21 130 -24 3 -4 1 -42 -5 -85 -15 -94
-16 -389 -2 -572 23 -307 61 -612 140 -1134 34 -224 38 -326 15 -349 -17 -17
-180 -73 -241 -82 -55 -8 -85 18 -176 154 -136 202 -212 353 -336 666 -63 158
-162 482 -162 528 0 25 -4 37 -9 32 -11 -12 -36 -467 -36 -655 0 -74 2 -240 5
-369 l4 -234 -23 -18 c-28 -23 -149 -27 -169 -7 -10 10 -15 10 -22 -2 -9 -15
-14 -3 -24 70 -3 19 -10 64 -15 100 -32 208 -38 288 -32 405 2 44 -1 75 -11
125 -7 37 14 150 30 161 13 8 14 11 4 16 -10 4 -10 8 -1 19 6 8 15 14 19 14
10 0 14 -58 13 -170 -1 -94 13 -94 17 0 1 25 4 39 7 33 12 -32 20 -4 32 110
18 173 23 207 31 207 4 0 10 -9 13 -20 3 -11 1 -18 -4 -14 -10 6 -10 -274 0
-376 l6 -65 9 50 c5 28 10 83 12 123 2 57 -1 72 -12 72 -8 0 -14 5 -14 10 0 6
4 10 10 10 6 0 7 18 3 45 -5 39 -2 49 17 70 13 14 29 25 37 25 8 0 13 13 13
38 0 21 10 112 22 203 12 90 22 189 22 219 -1 30 3 57 7 60 14 9 16 171 2 166
-6 -3 -14 5 -16 17 -2 12 -2 -18 0 -68 3 -54 -2 -120 -10 -165 l-15 -75 -1 78
c-1 44 -5 77 -11 77 -5 0 -10 19 -10 43 0 24 -4 47 -10 53 -5 5 -17 36 -27 68
-10 32 -22 59 -28 60 -5 0 -19 -50 -29 -112 -20 -116 -31 -137 -29 -54 1 26
-1 39 -3 30 -9 -30 -24 -20 -24 15 0 42 18 162 31 209 5 22 17 39 28 43 28 8
83 -17 112 -52 23 -27 28 -29 44 -17 22 16 88 18 116 4 35 -19 65 -99 153
-407 64 -224 123 -392 223 -638 47 -115 87 -212 88 -214 2 -2 2 86 0 195 -3
115 -1 191 4 179 5 -11 18 -83 30 -160 13 -77 25 -151 28 -165 14 -55 21 17
16 145 -4 90 -2 127 5 120 6 -5 13 -23 15 -40 3 -16 3 8 1 55 -3 47 -7 153 -9
235 -4 151 -17 324 -35 490 -5 50 -10 125 -10 168 0 42 -4 77 -9 77 -5 0 -14
15 -21 33 -11 29 -13 30 -20 12 -5 -11 -9 -30 -9 -42 -1 -13 -5 -23 -11 -23
-5 0 -10 10 -11 23 -1 20 -2 20 -12 -5 -22 -56 -29 -27 -25 106 3 125 13 167
37 166 3 0 61 -9 128 -19z m-1154 -130 c9 -9 12 -260 12 -1039 l0 -1027 -70
-18 c-38 -9 -105 -19 -147 -21 l-78 -4 0 34 c0 19 -4 34 -9 34 -17 0 -40 882
-23 903 6 7 11 22 10 32 0 27 18 114 26 123 4 3 6 -27 5 -68 -3 -111 3 -278 8
-255 3 11 10 23 15 26 5 3 12 44 15 90 6 84 21 141 24 89 1 -14 1 -29 0 -33
-1 -5 3 -6 9 -2 5 3 10 1 10 -5 0 -6 4 -9 9 -5 13 7 21 -22 31 -103 6 -59 8
-62 9 -22 1 25 5 135 10 245 8 194 -7 729 -20 695 -3 -9 -9 0 -13 23 -4 20
-11 37 -16 37 -5 0 -11 -17 -13 -37 -4 -37 -4 -37 -6 7 l-2 45 -13 -30 c-9
-23 -14 -26 -21 -15 -6 10 -14 -13 -26 -73 -10 -49 -24 -95 -31 -104 -11 -14
-14 -8 -19 43 -10 85 -9 380 0 438 5 26 13 51 20 55 15 9 279 -43 294 -58z
m-3145 -19 c73 -26 149 -61 169 -76 50 -40 90 -131 109 -251 21 -129 30 -493
15 -662 -18 -222 -63 -444 -96 -477 -8 -8 -15 -20 -15 -27 0 -22 -43 -129 -51
-129 -11 0 -12 -4 6 52 8 27 11 63 8 84 -4 24 -2 35 4 31 6 -4 10 8 11 27 1
18 6 43 11 57 8 20 9 16 5 -21 -6 -63 11 -21 21 48 4 29 14 59 22 68 9 8 13
24 9 36 -3 12 -1 27 3 32 15 19 34 216 22 230 -6 6 -13 31 -17 54 -8 50 -15
47 -25 -11 l-6 -42 -2 38 c-1 45 -15 42 -26 -5 l-8 -33 -7 30 c-6 28 -7 25
-19 -30 -8 -33 -19 -98 -26 -145 -7 -47 -14 -71 -15 -55 -2 30 -2 29 -15 -10
-13 -39 -14 -39 -15 -10 -1 26 -2 27 -10 9 -14 -34 -52 -235 -46 -242 3 -3 6
3 6 14 0 10 5 26 11 34 18 27 -2 -59 -42 -183 -42 -129 -110 -282 -158 -352
-17 -25 -27 -45 -22 -45 15 0 92 107 132 183 33 61 38 67 35 39 -1 -18 -8 -38
-14 -44 -7 -7 -12 -18 -12 -24 0 -7 -29 -56 -65 -108 -43 -65 -60 -96 -49 -96
16 0 49 30 76 69 14 19 20 22 31 13 8 -7 18 -8 23 -4 4 4 -9 -13 -31 -38 -22
-25 -44 -45 -50 -45 -6 0 -23 -10 -38 -22 -16 -13 -49 -23 -84 -27 -32 -4
-104 -14 -160 -22 -56 -9 -114 -13 -127 -10 -64 16 -143 125 -185 253 -42 132
-56 269 -55 558 1 346 29 602 94 861 39 154 51 171 112 153 67 -19 70 -16 125
94 83 167 168 244 258 233 22 -3 100 -27 173 -54z m586 31 c-11 -50 -49 -143
-58 -143 -4 0 -5 10 -1 23 3 12 11 41 15 65 11 50 27 82 41 82 5 0 7 -12 3
-27z m1200 0 c-11 -50 -49 -143 -58 -143 -4 0 -5 10 -1 23 3 12 11 41 15 65
11 50 27 82 41 82 5 0 7 -12 3 -27z m-980 -104 c4 6 14 11 23 11 14 0 15 -10
9 -67 -21 -189 -27 -252 -40 -418 -39 -472 -52 -1250 -24 -1365 16 -65 11 -64
163 -31 100 22 182 53 235 91 33 24 44 25 36 5 -7 -19 -1 -19 30 2 31 20 202
23 247 5 120 -49 -201 -220 -478 -254 -84 -10 -102 -9 -274 21 -213 36 -253
53 -291 121 -39 72 -53 272 -38 570 6 129 12 255 12 280 3 81 37 324 51 370
18 58 45 188 45 217 0 12 10 29 22 37 12 9 17 16 10 16 -6 0 -12 11 -12 25 0
14 3 24 8 24 19 -3 22 3 12 21 -12 22 -5 60 11 60 5 0 9 -14 9 -31 0 -17 4
-28 10 -24 6 3 10 19 10 34 0 35 19 91 31 91 5 0 10 -28 11 -62 1 -39 3 -50 5
-29 3 19 10 40 18 45 7 6 16 29 19 51 19 109 38 140 48 75 3 -20 7 -14 22 30
26 78 36 96 46 80 5 -9 9 -9 14 -1z m1200 0 c4 6 14 11 23 11 17 0 17 9 -7
-215 -24 -218 -30 -292 -40 -480 -29 -549 -32 -1057 -8 -1155 16 -66 12 -65
174 -27 108 24 169 49 226 88 32 23 42 24 34 4 -7 -19 -1 -19 27 -1 48 32 248
26 269 -7 13 -20 9 -28 -25 -61 -78 -73 -299 -156 -472 -178 -84 -10 -102 -9
-274 21 -216 37 -253 53 -292 124 -39 72 -53 282 -38 582 6 127 12 253 13 280
4 85 36 308 51 355 7 25 22 88 31 140 10 52 22 101 28 109 6 7 9 27 7 43 -1
15 1 28 6 27 20 -3 25 2 13 16 -13 16 -6 65 10 65 5 0 10 -15 12 -32 l4 -33 7
30 c22 86 29 105 37 105 6 0 11 -26 11 -57 1 -34 4 -46 6 -28 3 16 10 33 16
37 7 4 19 41 27 83 16 80 31 99 40 49 6 -27 7 -26 24 26 26 78 36 96 46 80 5
-9 9 -9 14 -1z m-1415 -109 c-12 -77 -24 -96 -14 -25 8 68 15 98 20 93 3 -2 0
-33 -6 -68z m1199 4 c-4 -37 -10 -70 -14 -73 -6 -6 6 119 13 132 9 15 9 5 1
-59z m1199 -611 c-1 -54 -3 -12 -3 92 0 105 2 149 3 98 2 -51 2 -136 0 -190z
m554 -113 c-8 -20 -10 -9 -10 51 -1 42 2 79 7 83 11 12 14 -107 3 -134z m-142
-97 c-6 -28 -9 -58 -6 -67 4 -9 3 -16 -2 -16 -23 0 -20 72 6 205 l8 40 3 -55
c2 -30 -2 -78 -9 -107z m-5299 106 c0 -11 -4 -17 -10 -14 -5 3 -10 15 -10 26
0 11 5 17 10 14 6 -3 10 -15 10 -26z m4770 -19 c0 -5 -5 -10 -11 -10 -5 0 -7
5 -4 10 3 6 8 10 11 10 2 0 4 -4 4 -10z m640 -80 c0 -5 -5 -10 -11 -10 -5 0
-7 5 -4 10 3 6 8 10 11 10 2 0 4 -4 4 -10z m-3305 -230 c-4 -34 -9 -59 -12
-56 -3 3 -2 32 2 66 4 34 9 59 12 56 3 -3 2 -32 -2 -66z m-191 -645 c-4 -8 -8
-15 -10 -15 -2 0 -4 7 -4 15 0 8 4 15 10 15 5 0 7 -7 4 -15z m3353 -87 c-3 -8
-6 -5 -6 6 -1 11 2 17 5 13 3 -3 4 -12 1 -19z m1123 -463 l0 -55 -3265 0
-3265 0 0 55 0 55 3265 0 3265 0 0 -55z"/>
<path d="M1249 2202 c-2 -63 -2 -115 0 -117 2 -2 5 -38 7 -80 2 -42 8 -84 14
-93 11 -19 3 277 -10 358 -6 36 -8 22 -11 -68z"/>
<path d="M6633 3104 c6 -37 13 -51 22 -43 8 9 -7 79 -18 79 -6 0 -7 -15 -4
-36z"/>
<path d="M6685 3090 c-3 -5 -1 -10 4 -10 6 0 11 5 11 10 0 6 -2 10 -4 10 -3 0
-8 -4 -11 -10z"/>
<path d="M6811 2925 c-1 -5 19 -91 44 -189 24 -99 43 -182 41 -184 -5 -4 -41
93 -50 134 -4 17 -18 46 -31 64 -13 17 -27 49 -30 71 -7 41 -25 63 -25 31 0
-11 6 -38 14 -60 10 -26 11 -43 4 -50 -6 -6 -6 -12 1 -16 6 -4 11 -19 11 -34
0 -15 7 -40 15 -56 17 -33 18 -31 -15 -40 -17 -5 -21 -4 -11 2 9 7 11 17 6 28
-5 13 -9 15 -12 6 -4 -10 -8 -9 -17 4 -12 16 -13 15 -19 -5 -3 -11 -1 -19 3
-16 5 3 13 -9 19 -27 5 -18 21 -64 35 -103 31 -83 30 -81 9 -64 -15 13 -16 11
-9 -21 4 -19 10 -55 13 -78 3 -24 12 -46 19 -49 8 -3 14 -10 14 -17 0 -6 12
-24 26 -41 19 -23 24 -25 20 -10 -20 77 -35 155 -34 180 0 17 -7 54 -16 84
-27 90 -17 102 19 26 39 -79 41 -80 19 -6 -8 29 -13 55 -11 58 8 8 37 -58 79
-177 37 -106 68 -179 53 -122 -28 100 -68 267 -75 311 -15 86 -107 397 -109
366z"/>
<path d="M6909 2256 c14 -36 27 -60 29 -55 4 9 -44 119 -51 119 -3 0 7 -29 22
-64z"/>
<path d="M7400 2146 c0 -8 5 -18 10 -21 6 -3 10 3 10 14 0 12 -4 21 -10 21 -5
0 -10 -6 -10 -14z"/>
<path d="M7382 2080 c0 -14 2 -19 5 -12 2 6 2 18 0 25 -3 6 -5 1 -5 -13z"/>
<path d="M6996 2047 c3 -10 9 -15 12 -12 3 3 0 11 -7 18 -10 9 -11 8 -5 -6z"/>
<path d="M6000 2060 c0 -39 12 -100 19 -100 13 0 8 85 -5 105 -14 19 -14 19
-14 -5z"/>
<path d="M5962 1990 c0 -14 2 -19 5 -12 2 6 2 18 0 25 -3 6 -5 1 -5 -13z"/>
<path d="M2986 3021 c-28 -31 -90 -183 -153 -373 -32 -98 -63 -177 -69 -178
-6 0 -16 -10 -22 -22 -8 -18 -11 -19 -11 -5 -2 31 -19 18 -26 -20 -3 -21 -14
-56 -24 -78 -10 -22 -24 -74 -31 -115 -7 -41 -16 -77 -21 -80 -5 -3 -10 -33
-13 -67 -3 -46 -1 -65 10 -74 8 -6 14 -28 14 -49 0 -39 23 -70 53 -70 31 0 27
-18 -9 -39 -23 -14 -52 -21 -85 -21 l-49 0 0 -52 c0 -126 43 -353 73 -383 6
-7 7 -1 2 15 -4 14 -11 52 -15 85 -4 33 -11 77 -15 98 -5 25 -4 37 4 37 6 0
11 -8 12 -17 1 -28 37 -140 59 -188 5 -11 14 -32 20 -47 14 -42 34 -36 27 8
-6 36 -6 36 14 19 10 -10 21 -16 22 -14 33 41 105 194 140 296 98 282 142 638
135 1095 -3 247 -8 276 -42 239z m-279 -1581 c-4 -18 -37 86 -36 114 0 12 9
-6 20 -39 10 -33 18 -67 16 -75z"/>
<path d="M3010 1745 c-5 -14 -14 -25 -19 -25 -12 0 -43 -79 -36 -91 4 -5 2 -9
-3 -9 -12 0 -34 -59 -26 -71 3 -5 0 -9 -5 -9 -6 0 -11 -4 -11 -9 0 -6 -15 -36
-34 -69 -19 -32 -36 -65 -38 -72 -2 -8 -9 -21 -15 -28 -12 -13 -18 -42 -8 -42
20 0 135 179 160 251 37 103 63 199 54 199 -5 0 -14 -11 -19 -25z m-141 -339
c-7 -14 -16 -26 -21 -26 -5 0 -1 14 7 31 20 37 31 33 14 -5z"/>
<path d="M2481 1654 c22 -144 35 -184 53 -156 7 11 -33 177 -48 198 -12 15
-12 9 -5 -42z"/>
<path d="M3611 1954 c0 -11 3 -14 6 -6 3 7 2 16 -1 19 -3 4 -6 -2 -5 -13z"/>
<path d="M3662 1915 c0 -60 14 -171 18 -135 3 38 -1 101 -10 145 l-8 40 0 -50z"/>
<path d="M3606 1845 c-4 -44 -13 -84 -20 -88 -8 -6 -8 -10 2 -14 8 -3 12 -30
12 -81 1 -56 3 -72 11 -60 5 10 8 81 7 170 -3 148 -3 150 -12 73z"/>
<path d="M3582 1795 c0 -16 2 -22 5 -12 2 9 2 23 0 30 -3 6 -5 -1 -5 -18z"/>
<path d="M4862 1920 c0 -36 3 -87 8 -115 l7 -50 1 60 c0 33 -3 85 -8 115 l-7
55 -1 -65z"/>
<path d="M4811 1954 c0 -11 3 -14 6 -6 3 7 2 16 -1 19 -3 4 -6 -2 -5 -13z"/>
<path d="M4808 1876 c-5 -27 -8 -64 -8 -82 0 -18 -6 -35 -12 -37 -10 -4 -10
-8 -1 -14 6 -5 11 -15 11 -23 -1 -8 0 -42 1 -75 2 -50 4 -56 12 -36 5 13 8 90
7 170 -2 110 -5 134 -10 97z"/>
<path d="M4782 1795 c0 -16 2 -22 5 -12 2 9 2 23 0 30 -3 6 -5 -1 -5 -18z"/>
</g>
</svg>
